<?xml version="1.0" encoding="utf-8"?>
<!-- Generator: Adobe Illustrator 23.0.3, SVG Export Plug-In . SVG Version: 6.00 Build 0)  -->
<svg version="1.1" id="Layer_1" xmlns="http://www.w3.org/2000/svg" xmlns:xlink="http://www.w3.org/1999/xlink" x="0px" y="0px"
	 viewBox="0 0 595.3 595.3" style="enable-background:new 0 0 595.3 595.3;" xml:space="preserve">
<style type="text/css">
	.st0{fill:#C02026;}
	.st1{fill:#E6E7E8;}
	.st2{fill:#A97C50;}
	.st3{fill:#C49A6C;}
	.st4{fill:#EE3824;}
	.st5{fill:#F1F2F2;}
</style>
<g>
	<g>
		<path class="st0" d="M436.8,377.3c-43.3,75.7-139.8,102.6-216.1,59.9c-0.2-0.2-0.3-0.3-0.6-0.3l-63.9,114.1
			c0.2,0.2,0.5,0.2,0.6,0.3c139.3,78,315.5,28.7,394-110.1L436.8,377.3z"/>
		<path class="st1" d="M156.3,551.1l63.9-114.1c-75.9-42.9-103.2-138.7-61.4-215.2L44.6,157.8C-32.5,297.3,17.2,472.9,156.3,551.1z"
			/>
		<path class="st1" d="M440.2,45c-0.2-0.2-0.5-0.2-0.6-0.3l-63.9,114.1c0.2,0.2,0.5,0.2,0.6,0.3c76.8,43,104.2,140.1,61.3,216.9
			c-0.3,0.5-0.5,0.9-0.8,1.4l114.1,63.9c0.3-0.5,0.5-0.9,0.8-1.4C629.9,300,580,123.2,440.2,45z"/>
		<path class="st0" d="M45.3,156.6l114.1,63.9c42.9-76.7,139.6-104,216.3-61.6l63.9-114.1C299.9-33.2,123.4,16.9,45.3,156.6z"/>
		<path class="st2" d="M416.3,36.9l-59.3,106c-5.2,9.4-0.6,21.8,10.4,27.8c0.6,0.3,1.2,0.6,1.8,1.1c0.6,0.3,1.2,0.8,1.8,1.1
			c10.8,6.1,23.8,3.7,29-5.7l59.3-106c5.1-9.2,0.8-21.4-9.7-27.5c-0.8-0.5-1.7-0.9-2.5-1.4s-1.7-0.9-2.5-1.4
			C434.2,25.1,421.6,27.8,416.3,36.9z"/>
		<path class="st2" d="M196.4,430.2l-59.3,106c-5.2,9.4-0.6,21.8,10.4,27.8c0.6,0.3,1.2,0.6,1.8,1.1c0.6,0.3,1.2,0.8,1.8,1.1
			c10.8,6.1,23.8,3.7,29-5.7l59.3-106c5.1-9.2,0.8-21.4-9.7-27.5c-0.8-0.5-1.7-0.9-2.5-1.4c-0.8-0.5-1.7-0.9-2.5-1.4
			C214.2,418.2,201.4,420.9,196.4,430.2z"/>
		<path class="st2" d="M559.8,416.6l-106-59.3c-9.4-5.2-21.8-0.6-27.8,10.4c-0.3,0.6-0.6,1.2-1.1,1.8c-0.3,0.6-0.8,1.2-1.1,1.8
			c-6.1,10.8-3.7,23.8,5.7,29l106,59.3c9.2,5.1,21.4,0.8,27.5-9.7c0.5-0.8,0.9-1.7,1.4-2.5c0.5-0.8,0.9-1.7,1.4-2.5
			C571.8,434.5,569,421.7,559.8,416.6z"/>
		<path class="st2" d="M166.7,196.5l-106-59.3c-9.4-5.2-21.8-0.6-27.8,10.4c-0.3,0.6-0.6,1.2-1.1,1.8c-0.3,0.6-0.8,1.2-1.1,1.8
			c-6.1,10.8-3.7,23.8,5.7,29l106,59.3c9.2,5.1,21.4,0.8,27.5-9.7c0.5-0.8,0.9-1.7,1.4-2.5c0.5-0.8,0.9-1.7,1.4-2.5
			C178.5,214.3,175.8,201.7,166.7,196.5z"/>
		<path class="st3" d="M390.8,174.8c-3.1-2.3-6.3-4.6-8.8-7.5c-8.1-10.1-4.3-25,0.3-37.2c11.8-30.7,27.5-59.9,46.2-87
			c3.2-4.6,6.6-9.2,11.7-12c0.9-0.5,1.8-0.8,2.8-1.1c-10.3-4.6-22-1.8-26.7,6.9L357,143c-5.2,9.4-0.6,21.8,10.4,27.8
			c0.6,0.3,1.2,0.6,1.8,1.1c0.6,0.3,1.2,0.8,1.8,1.1C377.6,176.4,384.9,177,390.8,174.8z"/>
		<path class="st4" d="M469.8,493c8.4-19.7-1.5-43.5-18.1-56.8c-13.2-10.6-29.6-16.1-46.4-19.5c-41.8,37.6-101.1,50.8-155.5,33.3
			c-13.1,15.8-22.3,35-29.6,54.5c-5.8,15.5-9.8,35.3,2.3,46.5c5.8,5.5,14.1,7.4,22.1,8.8c64.5,10.6,131.3-6,189.7-35.6
			C448.6,516.8,463.4,507.7,469.8,493z"/>
		<path class="st5" d="M143.2,262.3c-0.2-3.4-0.5-6.8-2-9.8c-2.3-4.8-7.1-7.8-11.8-10.4c-16.6-9.4-34.9-15.8-53.6-19.2
			c-7.1-1.2-14.4-2.2-21.2,0C43.5,226.1,36,236.9,33.1,248c-2.9,11.2-2,22.9-1.1,34.4c2.8,33.6,5.7,67.6,14.9,100
			s25.3,63.9,50.8,85.9c7.2,6.3,16,12,25.5,12.1c6.8,0,13.2-2.6,19-6c23-13.1,39.2-37.3,43.5-63.4
			C147,372.2,130.8,315.7,143.2,262.3z"/>
		<path class="st4" d="M367.8,60.8c-5.8-17.1-26.1-24.3-43.9-26.6c-57.6-7.5-116.4,11.5-165.1,43.3c-15.7,10.3-31.3,23.2-35.5,41.5
			c-3.7,16.4,3.2,33.8,14.1,46.5c10.8,12.6,24.9,21.5,39,30.3c39.5-47.2,102.6-67.1,161.6-52.1c9.5-13.1,16.3-28,22.9-42.7
			C366.4,88.3,372.3,74.1,367.8,60.8z"/>
		<path class="st5" d="M552.9,234.1c-8.9-41.6-26.4-86.2-64.5-105.4c-10.4-5.4-22.6-8.4-34-5.8c-21.4,4.8-33.6,26.7-41.3,47
			c-1.7,4.3-3.1,8.6-4.5,13.1c40.2,38.4,57.3,95.4,45.5,149.3c0.8,0.8,1.4,1.4,2.2,2c22.4,20,53.6,26.4,83.4,29.2
			c2.3,0.2,4.6,0.5,6.8-0.5c4.5-1.7,6.3-6.6,7.5-11.2C564.7,313.7,561.2,273,552.9,234.1z"/>
		<path class="st3" d="M564.6,447.5c0.5-0.8,0.9-1.7,1.4-2.5c5.8-10.6,3.1-23.4-6-28.4l-106-59.3c-0.8-0.5-1.4-0.8-2.2-0.9
			c-2.5-0.3-5.1-0.8-7.5-1.1c-7.1,0.6-14,5.1-18,12.4c-0.3,0.6-0.6,1.2-1.1,1.8c-0.3,0.6-0.8,1.2-1.1,1.8c-0.2,0.3-0.3,0.6-0.5,0.9
			c0.5,0,0.9,0,1.4,0c11.1,0.5,21.5,4.9,31.8,9.2c39.2,16.6,80.7,35,106.8,67.7C564,448.6,564.3,448.1,564.6,447.5z"/>
		<path class="st3" d="M229.7,426.8c-0.8-0.5-1.7-0.9-2.5-1.4c-0.8-0.5-1.7-0.9-2.5-1.4c-3.4-1.8-6.9-2.8-10.3-3.1
			c11.2,13.4,7.7,35.2,1.1,52.2c-13.5,35.3-35.2,67.4-62.5,93.7c10.3,4.9,22.3,2.2,27.2-6.6l59.3-106
			C244.6,445.1,240.3,432.9,229.7,426.8z"/>
		<path class="st3" d="M171.3,227.5c0.5-0.8,0.9-1.7,1.4-2.5c1.7-3.1,2.6-6.3,2.9-9.5c-3.5-0.2-7.2,0-10.9,0.2
			c-33.2,0.5-63.9-16.7-92.6-33.3c-8.8-5.1-17.7-10.3-24.1-18.1c-5.7-6.9-9.2-16.4-7.4-25c-3.1,2.2-5.8,5.1-7.7,8.6
			c-0.3,0.6-0.6,1.2-1.1,1.8c-0.3,0.6-0.8,1.2-1.1,1.8c-6.1,10.8-3.7,23.8,5.7,29l106,59.3c9.2,5.1,21.4,0.8,27.5-9.7
			C170.4,229.2,170.9,228.3,171.3,227.5z"/>
	</g>
</g>
</svg>
