<svg id="Layer_3" data-name="Layer 3" xmlns="http://www.w3.org/2000/svg" viewBox="0 0 992.03 1088.21"><title>romanisko_portret</title><path d="M1604,1132s1.2-2,3.14-5.41C1640,1086,1636,1016,1589.07,986.89a125.11,125.11,0,0,0-14-7.93c-19.57-9.56-42.19-15.16-63.63-18.62q-5-1.33-10.13-2.66L1491,955c-36.81-9.61-59-4-99-16-18.87-5.66-49-14-38-70,5.13-26.11,11.13-43.41,14.34-57.29.36-1.54.68-3,1-4.55,5.11-14.11,2.36-28.14-4.46-40.35-.85-1.53-1.77-3-2.74-4.51-10.14-12.3-21.14-28.3-13.33-44a37.83,37.83,0,0,1,2-4.54,41.48,41.48,0,0,1,2.78-4.47c.68-1.45,1.4-2.87,2.09-4.26,2.79-5.55,5.29-10.55,4.29-15-1.12-3.75-4.08-5.67-7.92-6.62a28.26,28.26,0,0,0-4.11-.65c-12-1.73-26,1.27-36.3-7.26a41.11,41.11,0,0,1-3.67-2.53c-7-5.42-11.66-13.13-12-24.94-1-27,21-49,33-72.09,3.36-5.76,6.39-10.95,9.15-15.66,16.54-28.26,23.24-39.35,28.23-53.88,1.38-4,3-7.93,4.46-11.77s3-7.65,4.07-11.51C1382,464,1368,447,1362,430a79,79,0,0,1-5.06-27.74c.21-4.53.62-9,1.24-13.47q1.32-7.77,3.12-15.39t4-15.13q2.51-8.14,5.32-16.13t5.89-15.88q2.48-7.1,5.26-14t5.83-13.73q2.91-6.69,6.05-13.28t6.49-13.15C1425,228,1451,184,1488.58,149.52q5.33-5.09,10.9-9.9a241.56,241.56,0,0,1,62.34-39.52c3.54-1.92,7-3.82,10.57-5.67s7.07-3.68,10.63-5.47c4.94-2.23,9.89-4.29,14.88-6.23,44.89-17.36,93.42-24.81,141.28-34.52q6.35-.87,12.72-1.57A442.71,442.71,0,0,1,1816.07,44c4.84.12,9.48.31,14,.55,13.59.74,26.45,2,38.51,3.66,6,.82,11.86,1.74,17.47,2.7A221.54,221.54,0,0,1,2011.4,99q5.89,4.74,11.44,9.92c40.67,46.8,77,102.54,92.83,163q2.16,8.25,3.8,16.62c9.26,49.71,7.4,99.31,1.5,148.64q-1,8.22-2.1,16.43C2108,512,2107,571,2092,629c-6,25-23,47-24.29,73.63q-.74,5.39-1.35,11.21c-1.22,11.63-2.06,24.61-2.36,39.16-2,97-28,72,27,131s197,248,197,248Z" transform="translate(-1295.97 -43.79)" style="fill:#996520"/><path d="M1741.76,1080.22c-.83-2.53-1.77-5-2.85-7.53-2-4.47-4.24-8.85-6.66-13.14s-5-8.5-7.77-12.59c-3.48-8-10.48-13-15.48-20-22-26-58-38-70.27-70.78a81.42,81.42,0,0,1-3.6-11.85,117.42,117.42,0,0,1-2.13-12.69,86.65,86.65,0,0,1,0-14.85A85.76,85.76,0,0,1,1649,874c2.33-2.83,4.72-5.61,7.14-8.35C1685,836,1714,800,1714.08,755.9a111.54,111.54,0,0,0,0-11.85,86.21,86.21,0,0,0-4.11-22.71,68.13,68.13,0,0,0-5.23-11.9A62.3,62.3,0,0,0,1694,695.55a38.87,38.87,0,0,0-11.85-7.83c-18.58-5.36-35.12,1.21-50.89,11.12-3.94,2.48-7.84,5.17-11.68,8-23,19.11-50.33,38.15-79.49,45.84a108,108,0,0,1-12.59,2.56c-26.26,2.9-43.88-12.15-55.66-33.08a131,131,0,0,1-6.41-13.14c-24.44-52-18.44-110-9.69-164.5a119.29,119.29,0,0,0,1.11-15.76c.14-37.78-17.52-74.78-45.75-99.6a135.06,135.06,0,0,0-11.06-8.73,53.25,53.25,0,0,1-11.1-10.54,73.19,73.19,0,0,1-5.74-28.72,91.78,91.78,0,0,1,.5-9.78C1391,319,1424,276,1448.07,230.19q4-6.47,8.17-12.8t8.7-12.51q4.3-5.67,8.73-11.25,13.29-16.71,27.61-32.35c3.67-3.71,7.51-7.28,11.55-10.67a151.73,151.73,0,0,1,12.72-9.6q5.13-3.76,10.67-7.44c25.84-17.14,58.39-32.46,101.23-45.24C1766,50,1911.27,64.43,1971.63,95.72S2099,235,2098,354s-9,149-22,215c-2.79,14.14-6.35,28-10.09,41.86q-1.87,6.93-3.78,13.87c-4.31,16.13-8.21,32.43-11.55,48.85-1.16,5.51-2.25,11-3.38,16.76a446.63,446.63,0,0,0-11.41,62.83q-.86,8-1.37,16.14a252.37,252.37,0,0,0,2.88,73.15q1.32,7.15,3,14.24a133.75,133.75,0,0,0,4.71,15.5,141.21,141.21,0,0,0,6.49,14.72C2077,932,2122,960,2157,999c7,8,12,18,8,28,29.36,4.76,41.09,30.3,54.64,53.22Z" transform="translate(-1295.97 -43.79)" style="fill:#cb972b"/><path d="M1313,634s36-67,45-85,29.72-52.89,31-64c3-26,21-39,20,16s-8,54-13,94c-6.36,50.85,19,76,19,76s-26,10-42,3-12-29-30-21S1305,648,1313,634Z" transform="translate(-1295.97 -43.79)" style="fill:#cb972b"/><path d="M1370.19,706.21c-2.19,6.79-6.19,12.79-7.41,20a17.4,17.4,0,0,0,.31,4.53c.79,3.95,2.89,7.56,5.59,11,.9,1.16,1.87,2.31,2.89,3.48,2.47,3.09,5.06,6.12,7.55,9.2.83,1,1.65,2,2.45,3.09a40.75,40.75,0,0,1,10.16,20.81c.26,1.49.46,3,.59,4.51C1393,801,1386,817,1380.76,832.62c-.43,1.24-.86,2.48-1.28,3.73a230.76,230.76,0,0,0-7.48,26.93,122.22,122.22,0,0,0-2.21,15.22C1366,901,1383,923,1406,922q7.76,0,15.49.49c5.24.35,10.47.84,15.86,1.33a308,308,0,0,1,35,3.73q2.89.5,5.77,1.06c6.77,1.49,13.61,2.84,20.54,4.1l4.17.77C1514,936,1526,940,1537.23,943.86q2.55,1,5.09,2.11c11.87,5,23.62,10.59,35.68,16,4.5,2.25,9.56,2,14.19,0a23.41,23.41,0,0,0,4.44-2.58A12.29,12.29,0,0,0,1604,948c0-25-6-51,5.24-74.24q1-2.57,2-5.1c4.22-10.16,9.22-20.16,12.72-30.66,5-16-1-35-16-41-32-13-66,3-98.82,3.77a127.76,127.76,0,0,1-14.69-.8c-21.39-1.19-35.51-11.18-45.84-25.3a97.74,97.74,0,0,1-7-11.26c-10.29-18.6-16.8-55.34-34.91-66.68a23.9,23.9,0,0,0-4.39-2.17C1392,690,1379,694,1371.79,702.14A7.81,7.81,0,0,0,1370.19,706.21Z" transform="translate(-1295.97 -43.79)" style="fill:#af7522"/><path d="M1805.2,1080.22a178.53,178.53,0,0,0-5.08-20.54c-1.37-4.37-2.91-8.67-4.65-12.91C1781,1003,1738,979,1710.49,945.27a66.29,66.29,0,0,1-6.15-10.76,47,47,0,0,1-3.54-11.5,40.82,40.82,0,0,1-.2-12.31c12.4-47.7,64.4-69.7,93.7-106,2.45-2.42,4.86-4.82,7.2-7.18s4.65-4.69,6.86-7C1818,780,1832,770,1836,754c-21,11-50,29-71,10a57.41,57.41,0,0,1-9.51-9.91,43.55,43.55,0,0,1-5.82-10.59C1743,727,1749,709,1753.43,692c1.33-4.28,2.74-8.57,4.19-12.87,11.6-34.4,25.3-69,17-104.67a58.76,58.76,0,0,0-4.56-11.23A54.72,54.72,0,0,0,1763,553c-24.57-27.09-54.3-12.11-79.5,11.61-3.59,3.39-7.08,7-10.35,10.69-7.25,11.31-14.75,23.73-23.13,35.32-2.8,3.88-5.69,7.66-8.71,11.33C1626,642,1605,663,1577,660c-20-2-34-17-43.57-32.81A51.54,51.54,0,0,1,1529,616q-1.57-4.85-2.77-9.8a160.58,160.58,0,0,1-4.2-30.4c-.22-4.58-.27-9.19-.18-13.82,0-5,.21-9.95.52-14.88,1.61-23,2.61-33,6.61-45,2-6,3-10,4.13-13.62a57.46,57.46,0,0,1,4.86-11.45c7-11.93,10-24.93,8-38.93a71.81,71.81,0,0,0-2.73-10.06,117.51,117.51,0,0,1-15.94-69.07c.29-3.93.77-7.85,1.41-11.73C1538,300,1568,260,1599.19,224.67c3.45-3.65,6.93-7.13,10.51-10.5s7.26-6.63,11-9.79,7.47-6.43,11.34-9.49a253.81,253.81,0,0,1,24.31-17.06,130.24,130.24,0,0,1,12.61-7.09c18.49-9.08,40.67-14.47,68.87-13.82,4.71.11,9.58.38,14.64.83C1800,160,1852,164,1889,198.72a112.09,112.09,0,0,1,10.18,9.8,101.62,101.62,0,0,1,21.91,37.78q1.49,7,3,14c6.89,30.72,13.89,62.72,23.66,93q4.61,15.24,9.88,30.28a83.14,83.14,0,0,1,2.45,13.75c1.48,17.82-5.08,33.39-29.09,44.34l-9.57,4.38q-4.68,2.13-9.11,4.18C1902,455,1891,460,1880.78,464.92q-6.9,3.24-12.75,6c-7.81,3.72-14.21,6.81-19.14,9.2C1841.08,484,1837,486,1837,486s6.56-2.11,15.93-4.67c4.68-1.27,10.07-2.66,15.71-4C1913,461,1964,486,1979,531a69.72,69.72,0,0,1,3.08,24.41,70.85,70.85,0,0,1-1.68,12.12,141.55,141.55,0,0,1-6.59,15.17C1971,589,1967,595,1963,601c-21.87,24.5-36.09,52.83-53.16,79.22q-3.66,5.67-7.52,11.18C1891,706,1878,720,1863,730.5c-7,5.28-14.22,10.68-14.22,10.68s5.89-3.64,14.56-8.93C1888,717,1914,703,1937,685c21,45,27,94,25.18,142.78,0,5,0,10,.07,15.09.47,5.51,1.07,11,1.77,16.52,3,46.61,18,91.61,42.15,132.24q3.75,7,7.6,14C2027,1031,2060,1059,2052,1080Z" transform="translate(-1295.97 -43.79)" style="fill:#ffe936"/><path d="M1815.91,684.58c18.37-16.51,7.49-19.9,26.8-28.21s30.66-9.37,40.14-26.81,25.27-26.58,3.15-51.38-37-16-45.47-14.66c-9.48,1.53-.88,10.69,17.85,20.75s30.78,19.42,11.12,26.8-5.85,12.87-29,2.34-50.1-28.19-49.75-10.17,6.32,8.31,3.87,35.93-22.69,44.51,1.42,46.47C1814.74,687.16,1815.91,684.58,1815.91,684.58Z" transform="translate(-1295.97 -43.79)" style="fill:#af7522"/><path d="M1802.8,663.87s-2.58-1.17,1-14.28,4.68-10.3,6-18.26-1.65-10.07,5.85-4.33,16.27,3.5,21.18,8.07,4.57,7.52-2.69,12.76c-9.24,6.67-8.77,10.77-14.62,15.1S1804,669.84,1802.8,663.87Z" transform="translate(-1295.97 -43.79)" style="fill:#ffe936"/></svg>