<svg id="Layer_3" data-name="Layer 3" xmlns="http://www.w3.org/2000/svg" viewBox="0 0 625.84 1037.86"><title>romanisko_portret_MD</title><path d="M1921.81,56a219.13,219.13,0,0,0-35.73-5.05c-5.61-1-11.44-1.88-17.47-2.7-12.06-1.64-24.92-2.92-38.51-3.66-4.55-.24-9.19-.43-14-.55a442.71,442.71,0,0,0-64.17,2.61q-6.37.7-12.72,1.57c-47.86,9.71-96.39,17.16-141.28,34.52-5,1.94-9.94,4-14.88,6.23q-5.34,2.69-10.63,5.47c-3.53,1.85-7,3.75-10.57,5.67a241.56,241.56,0,0,0-62.34,39.52q-5.58,4.8-10.9,9.9C1451,184,1425,228,1400.13,272.08q-3.36,6.54-6.49,13.15t-6.05,13.28q-3.06,6.8-5.83,13.73t-5.26,14q-3.07,7.89-5.89,15.88t-5.32,16.13q-2.2,7.5-4,15.13t-3.12,15.39c-.62,4.48-1,8.94-1.24,13.47A79,79,0,0,0,1362,430c6,17,20,34,12.88,53.09-1.12,3.86-2.56,7.66-4.07,11.51s-3.08,7.73-4.46,11.77c-5,14.53-11.69,25.62-28.23,53.88-2.76,4.71-5.79,9.9-9.15,15.66C1317,599,1295,621,1296,648c.34,11.81,5,19.52,12,24.94a41.11,41.11,0,0,0,3.67,2.53C1322,684,1336,681,1348,682.73a28.26,28.26,0,0,1,4.11.65c3.84,1,6.8,2.87,7.92,6.62,1,4.5-1.5,9.5-4.29,15-.69,1.39-1.41,2.81-2.09,4.26a41.48,41.48,0,0,0-2.78,4.47,37.83,37.83,0,0,0-2,4.54C1341,734,1352,750,1362.14,762.3c1,1.48,1.89,3,2.74,4.51,6.82,12.21,9.57,26.24,4.46,40.35-.32,1.51-.64,3-1,4.55-3.21,13.88-9.21,31.18-14.34,57.29-11,56,19.13,64.34,38,70,40,12,62.19,6.39,99,16l10.28,2.68q5.1,1.32,10.13,2.66c21.44,3.46,44.06,9.06,63.63,18.62a125.11,125.11,0,0,1,14,7.93c32.14,19.94,44.14,59.05,38,94.76h294.78Z" transform="translate(-1295.97 -43.79)" style="fill:#9b8143"/><path d="M1637.45,88.33c-42.84,12.78-75.39,28.1-101.23,45.24q-5.54,3.68-10.67,7.44a151.73,151.73,0,0,0-12.72,9.6c-4,3.39-7.88,7-11.55,10.67q-14.28,15.63-27.61,32.35-4.43,5.56-8.73,11.25-4.49,6.18-8.7,12.51t-8.17,12.8C1424,276,1391,319,1383.71,371.35a91.78,91.78,0,0,0-.5,9.78,73.19,73.19,0,0,0,5.74,28.72,53.25,53.25,0,0,0,11.1,10.54,135.06,135.06,0,0,1,11.06,8.73c28.23,24.82,45.89,61.82,45.75,99.6a119.29,119.29,0,0,1-1.11,15.76C1447,599,1441,657,1465.44,709a132.23,132.23,0,0,0,6.41,13.15c11.78,20.92,29.4,36,55.66,33.07a108,108,0,0,0,12.59-2.56c29.16-7.69,56.47-26.73,79.49-45.84,3.84-2.79,7.74-5.48,11.68-8,15.77-9.91,32.31-16.48,50.89-11.12a38.87,38.87,0,0,1,11.85,7.83,62.3,62.3,0,0,1,10.75,13.89,68.13,68.13,0,0,1,5.23,11.9,86.21,86.21,0,0,1,4.11,22.71,111.54,111.54,0,0,1,0,11.85C1714,800,1685,836,1656.14,865.65c-2.42,2.74-4.81,5.52-7.14,8.35a85.93,85.93,0,0,0-16,57.68,117.42,117.42,0,0,0,2.13,12.69,81.42,81.42,0,0,0,3.6,11.85C1651,989,1687,1001,1709,1027c5,7,12,12,15.48,20,2.79,4.09,5.36,8.3,7.77,12.59s4.67,8.67,6.66,13.14c1.08,2.49,2,5,2.85,7.53h180V78.21C1849.45,60.67,1738.31,58.26,1637.45,88.33Z" transform="translate(-1295.97 -43.79)" style="fill:#d4872f"/><path d="M1313,634s36-67,45-85,29.72-52.89,31-64c3-26,21-39,20,16s-8,54-13,94c-6.36,50.85,19,76,19,76s-26,10-42,3-12-29-30-21S1305,648,1313,634Z" transform="translate(-1295.97 -43.79)" style="fill:#d4872f"/><path d="M1370.19,706.21c-2.19,6.79-6.19,12.79-7.41,20a17.4,17.4,0,0,0,.31,4.53c.79,3.95,2.89,7.56,5.59,11,.9,1.16,1.87,2.31,2.89,3.48,2.47,3.09,5.06,6.12,7.55,9.2.83,1,1.65,2,2.45,3.09a40.75,40.75,0,0,1,10.16,20.81c.26,1.49.46,3,.59,4.51C1393,801,1386,817,1380.76,832.62c-.43,1.24-.86,2.48-1.28,3.73a230.76,230.76,0,0,0-7.48,26.93,122.22,122.22,0,0,0-2.21,15.22C1366,901,1383,923,1406,922q7.76,0,15.49.49c5.24.35,10.47.84,15.86,1.33a308,308,0,0,1,35,3.73q2.89.5,5.77,1.06c6.77,1.49,13.61,2.84,20.54,4.1l4.17.77C1514,936,1526,940,1537.23,943.86q2.55,1,5.09,2.11c11.87,5,23.62,10.59,35.68,16,4.5,2.25,9.56,2,14.19,0a23.41,23.41,0,0,0,4.44-2.58A12.29,12.29,0,0,0,1604,948c0-25-6-51,5.24-74.24q1-2.57,2-5.1c4.22-10.16,9.22-20.16,12.72-30.66,5-16-1-35-16-41-32-13-66,3-98.82,3.77a127.76,127.76,0,0,1-14.69-.8c-21.39-1.19-35.51-11.18-45.84-25.3a97.74,97.74,0,0,1-7-11.26c-10.29-18.6-16.8-55.34-34.91-66.68a23.9,23.9,0,0,0-4.39-2.17C1392,690,1379,694,1371.79,702.14A7.81,7.81,0,0,0,1370.19,706.21Z" transform="translate(-1295.97 -43.79)" style="fill:#68583a"/><path d="M1863.38,732.25c-8.67,5.29-14.56,8.93-14.56,8.93s7.17-5.4,14.22-10.68c15-10.5,28-24.5,39.28-39.1q3.87-5.5,7.52-11.18c4.11-6.35,8.05-12.81,12-19.31V476.06a83.3,83.3,0,0,0-53.17,1.31c-5.64,1.3-11,2.69-15.71,4C1843.56,483.89,1837,486,1837,486s4.08-2,11.89-5.84c4.93-2.39,11.33-5.48,19.14-9.2q5.85-2.79,12.75-6C1891,460,1902,455,1912.33,450.2q4.44-2,9.11-4.18l.37-.18V249.6c-.23-1.11-.48-2.2-.71-3.3a101.62,101.62,0,0,0-21.91-37.78,112.09,112.09,0,0,0-10.18-9.8c-37-34.72-89-38.72-136.51-41-5.06-.45-9.93-.72-14.64-.83-28.2-.65-50.38,4.74-68.87,13.82a130.24,130.24,0,0,0-12.61,7.09,253.81,253.81,0,0,0-24.31,17.06q-5.8,4.59-11.34,9.49-5.65,4.74-11,9.79c-3.58,3.37-7.06,6.85-10.51,10.5C1568,260,1538,300,1528.74,347.14c-.64,3.88-1.12,7.8-1.41,11.73a117.51,117.51,0,0,0,15.94,69.07A71.81,71.81,0,0,1,1546,438c2,14-1,27-8,38.93a57.46,57.46,0,0,0-4.86,11.45C1532,492,1531,496,1529,502c-4,12-5,22-6.61,45-.31,4.93-.5,9.89-.52,14.88-.09,4.63,0,9.24.18,13.82a160.58,160.58,0,0,0,4.2,30.4q1.2,5,2.77,9.8a51.54,51.54,0,0,0,4.41,11.24C1543,643,1557,658,1577,660c28,3,49-18,64.31-38,3-3.67,5.91-7.45,8.71-11.33,8.38-11.59,15.88-24,23.13-35.32,3.27-3.73,6.76-7.3,10.35-10.69,25.2-23.72,54.93-38.7,79.5-11.61a54.72,54.72,0,0,1,7.06,10.24,58.76,58.76,0,0,1,4.56,11.23c8.3,35.62-5.4,70.27-17,104.67-1.45,4.3-2.86,8.59-4.19,12.87-4.43,17-10.43,35-3.76,51.49a43.55,43.55,0,0,0,5.82,10.59A57.41,57.41,0,0,0,1765,764c21,19,50,1,71-10-4,16-18,26-27.64,36.5-2.21,2.29-4.51,4.62-6.86,7s-4.75,4.76-7.2,7.18C1765,841,1713,863,1700.6,910.7a40.82,40.82,0,0,0,.2,12.31,47,47,0,0,0,3.54,11.5,66.29,66.29,0,0,0,6.15,10.76c27.51,33.73,70.51,57.73,85,101.5,1.74,4.24,3.28,8.54,4.65,12.91a178.53,178.53,0,0,1,5.08,20.54l116.61-.1v-384C1902.9,709.06,1882.71,720.27,1863.38,732.25Z" transform="translate(-1295.97 -43.79)" style="fill:#fee361"/><path d="M1815.91,684.58c18.37-16.51,7.49-19.9,26.8-28.21s30.66-9.37,40.14-26.81,25.27-26.58,3.15-51.38-37-16-45.47-14.66c-9.48,1.53-.88,10.69,17.85,20.75s30.78,19.42,11.12,26.8-5.85,12.87-29,2.34-50.1-28.19-49.75-10.17,6.32,8.31,3.87,35.93-22.69,44.51,1.42,46.47C1814.74,687.16,1815.91,684.58,1815.91,684.58Z" transform="translate(-1295.97 -43.79)" style="fill:#ba8227"/><path d="M1802.8,663.87s-2.58-1.17,1-14.28,4.68-10.3,6-18.26-1.65-10.07,5.85-4.33,16.27,3.5,21.18,8.07,4.57,7.52-2.69,12.76c-9.24,6.67-8.77,10.77-14.62,15.1S1804,669.84,1802.8,663.87Z" transform="translate(-1295.97 -43.79)" style="fill:#fee361"/></svg>