<svg id="Layer_3" data-name="Layer 3" xmlns="http://www.w3.org/2000/svg" viewBox="0 0 331.49 1008.9"><title>romanisko_portret_cut_SM</title><path d="M1890.9,80.73c-5,1.94-9.94,4-14.88,6.23q-5.34,2.69-10.63,5.47c-3.53,1.85-7,3.75-10.57,5.67a241.56,241.56,0,0,0-62.34,39.52q-5.58,4.8-10.9,9.9C1744,182,1718,226,1693.13,270.08q-3.36,6.54-6.49,13.15t-6.05,13.28q-3.06,6.8-5.83,13.73t-5.26,14q-3.07,7.89-5.89,15.88t-5.32,16.13q-2.2,7.5-4,15.13t-3.12,15.39c-.62,4.48-1,8.94-1.24,13.47A79,79,0,0,0,1655,428c6,17,20,34,12.88,53.09-1.12,3.86-2.56,7.66-4.07,11.51s-3.08,7.73-4.46,11.77c-5,14.53-11.69,25.62-28.23,53.88-2.76,4.71-5.79,9.9-9.15,15.66C1610,597,1588,619,1589,646c.34,11.81,5,19.52,12,24.94a41.11,41.11,0,0,0,3.67,2.53C1615,682,1629,679,1641,680.73a28.26,28.26,0,0,1,4.11.65c3.84,1,6.8,2.87,7.92,6.62,1,4.5-1.5,9.5-4.29,15-.69,1.39-1.41,2.81-2.09,4.26a41.48,41.48,0,0,0-2.78,4.47,37.83,37.83,0,0,0-2,4.54C1634,732,1645,748,1655.14,760.3c1,1.48,1.89,3,2.74,4.51,6.82,12.21,9.57,26.24,4.46,40.35-.32,1.51-.64,3-1,4.55-3.21,13.88-9.21,31.18-14.34,57.29-11,56,19.13,64.34,38,70,40,12,62.19,6.39,99,16l10.28,2.68q5.1,1.32,10.13,2.66c21.44,3.46,44.06,9.06,63.63,18.62a125.11,125.11,0,0,1,14,7.93c22.14,13.73,34.72,36.57,38.39,61.12V70.75C1910.47,73.7,1900.6,77,1890.9,80.73Z" transform="translate(-1588.97 -70.75)" style="fill:#9b8143"/><path d="M1920,1079.65h.43v-2.73C1920.33,1077.83,1920.19,1078.74,1920,1079.65Z" transform="translate(-1588.97 -70.75)" style="fill:#9b8143"/><path d="M1829.22,131.57q-5.54,3.68-10.67,7.44a151.73,151.73,0,0,0-12.72,9.6c-4,3.39-7.88,7-11.55,10.67q-14.28,15.63-27.61,32.35-4.43,5.56-8.73,11.25-4.49,6.18-8.7,12.51t-8.17,12.8C1717,274,1684,317,1676.71,369.35a91.78,91.78,0,0,0-.5,9.78,73.19,73.19,0,0,0,5.74,28.72,53.25,53.25,0,0,0,11.1,10.54,135.06,135.06,0,0,1,11.06,8.73c28.23,24.82,45.89,61.82,45.75,99.6a119.29,119.29,0,0,1-1.11,15.76C1740,597,1734,655,1758.44,707a132.23,132.23,0,0,0,6.41,13.15c11.78,20.92,29.4,36,55.66,33.07a108,108,0,0,0,12.59-2.56c29.16-7.69,56.47-26.73,79.49-45.84q3.9-2.84,7.87-5.48V89.42C1882.5,101.55,1853,115.79,1829.22,131.57Z" transform="translate(-1588.97 -70.75)" style="fill:#d4872f"/><path d="M1606,632s36-67,45-85,29.72-52.89,31-64c3-26,21-39,20,16s-8,54-13,94c-6.36,50.85,19,76,19,76s-26,10-42,3-12-29-30-21S1598,646,1606,632Z" transform="translate(-1588.97 -70.75)" style="fill:#d4872f"/><path d="M1663.19,704.21c-2.19,6.79-6.19,12.79-7.41,20a17.4,17.4,0,0,0,.31,4.53c.79,3.95,2.89,7.56,5.59,11,.9,1.16,1.87,2.31,2.89,3.48,2.47,3.09,5.06,6.12,7.55,9.2.83,1,1.65,2,2.45,3.09a40.75,40.75,0,0,1,10.16,20.81c.26,1.49.46,3,.59,4.51C1686,799,1679,815,1673.76,830.62c-.43,1.24-.86,2.48-1.28,3.73a230.76,230.76,0,0,0-7.48,26.93,122.22,122.22,0,0,0-2.21,15.22C1659,899,1676,921,1699,920q7.76,0,15.49.49c5.24.35,10.47.84,15.86,1.33a308,308,0,0,1,35,3.73q2.89.5,5.77,1.06c6.77,1.49,13.61,2.84,20.54,4.1l4.17.77C1807,934,1819,938,1830.23,941.86q2.55,1,5.09,2.11c11.87,5,23.62,10.59,35.68,16,4.5,2.25,9.56,2,14.19,0a23.41,23.41,0,0,0,4.44-2.58A12.29,12.29,0,0,0,1897,946c0-25-6-51,5.24-74.24q1-2.57,2-5.1c4.22-10.16,9.22-20.16,12.72-30.66,5-16-1-35-16-41-32-13-66,3-98.82,3.77a127.76,127.76,0,0,1-14.69-.8c-21.39-1.19-35.51-11.18-45.84-25.3a97.74,97.74,0,0,1-7-11.26c-10.29-18.6-16.8-55.34-34.91-66.68a23.9,23.9,0,0,0-4.39-2.17C1685,688,1672,692,1664.79,700.14A7.81,7.81,0,0,0,1663.19,704.21Z" transform="translate(-1588.97 -70.75)" style="fill:#68583a"/><path d="M1913.73,202.38q-5.65,4.74-11,9.79c-3.58,3.37-7.06,6.85-10.51,10.5C1861,258,1831,298,1821.74,345.14c-.64,3.88-1.12,7.8-1.41,11.73a117.51,117.51,0,0,0,15.94,69.07A71.81,71.81,0,0,1,1839,436c2,14-1,27-8,38.93a57.46,57.46,0,0,0-4.86,11.45C1825,490,1824,494,1822,500c-4,12-5,22-6.61,45-.31,4.93-.5,9.89-.52,14.88-.09,4.63,0,9.24.18,13.82a160.58,160.58,0,0,0,4.2,30.4q1.2,5,2.77,9.8a51.54,51.54,0,0,0,4.41,11.24C1836,641,1850,656,1870,658c20.35,2.18,37-8.32,50.46-21.92V196.65C1918.19,198.53,1915.94,200.43,1913.73,202.38Z" transform="translate(-1588.97 -70.75)" style="fill:#fee361"/></svg>